<mxfile host="65bd71144e">
    <diagram id="HIP3nbAZw_EuaXWnEj3U" name="Page-1">
        <mxGraphModel dx="591" dy="596" grid="1" gridSize="10" guides="1" tooltips="1" connect="1" arrows="1" fold="1" page="1" pageScale="1" pageWidth="850" pageHeight="1100" math="0" shadow="0">
            <root>
                <mxCell id="0"/>
                <mxCell id="1" parent="0"/>
                <mxCell id="7" value="http://ics2o.mths.ca" style="swimlane;whiteSpace=wrap;html=1;" parent="1" vertex="1">
                    <mxGeometry x="20" y="50" width="760" height="480" as="geometry"/>
                </mxCell>
                <mxCell id="8" value="&lt;font style=&quot;font-size: 20px;&quot;&gt;Enter&amp;nbsp; an integer :&lt;/font&gt;" style="text;html=1;align=center;verticalAlign=middle;resizable=0;points=[];autosize=1;strokeColor=none;fillColor=none;" vertex="1" parent="7">
                    <mxGeometry x="10" y="55" width="180" height="40" as="geometry"/>
                </mxCell>
                <mxCell id="9" value="15" style="rounded=1;whiteSpace=wrap;html=1;fontSize=20;" vertex="1" parent="7">
                    <mxGeometry x="30" y="120" width="210" height="30" as="geometry"/>
                </mxCell>
                <mxCell id="10" value="CALCULATE SUM" style="rounded=0;whiteSpace=wrap;html=1;fontSize=20;" vertex="1" parent="7">
                    <mxGeometry x="30" y="200" width="180" height="45" as="geometry"/>
                </mxCell>
                <mxCell id="11" value="The Sum of numbers from 1 to 15 is 120" style="text;html=1;align=center;verticalAlign=middle;resizable=0;points=[];autosize=1;strokeColor=none;fillColor=none;fontSize=20;" vertex="1" parent="7">
                    <mxGeometry x="20" y="310" width="380" height="40" as="geometry"/>
                </mxCell>
            </root>
        </mxGraphModel>
    </diagram>
</mxfile>